<svg width="200" height="200" viewBox="0 0 200 200" fill="none" xmlns="http://www.w3.org/2000/svg">
<path d="M0 0H200V200H0V0Z" fill="#1D8439"/>
<path d="M31.2344 133H16.2344L16.3281 121.188H31.2344C34.6406 121.188 37.5156 120.406 39.8594 118.844C42.2031 117.25 43.9844 114.906 45.2031 111.812C46.4219 108.688 47.0312 104.891 47.0312 100.422V97.2812C47.0312 93.9062 46.6875 90.9375 46 88.375C45.3125 85.7812 44.2969 83.6094 42.9531 81.8594C41.6094 80.1094 39.9375 78.7969 37.9375 77.9219C35.9688 77.0469 33.7031 76.6094 31.1406 76.6094H15.9531V64.75H31.1406C35.7656 64.75 39.9844 65.5312 43.7969 67.0938C47.6406 68.6562 50.9531 70.8906 53.7344 73.7969C56.5469 76.7031 58.7188 80.1406 60.25 84.1094C61.7812 88.0781 62.5469 92.5 62.5469 97.375V100.422C62.5469 105.266 61.7812 109.688 60.25 113.688C58.7188 117.656 56.5469 121.094 53.7344 124C50.9531 126.875 47.6562 129.094 43.8438 130.656C40.0312 132.219 35.8281 133 31.2344 133ZM24.9062 64.75V133H9.625V64.75H24.9062Z" fill="#F5F5F5"/>
<path d="M126.859 96.9531V124.469C125.734 125.75 124.016 127.125 121.703 128.594C119.422 130.062 116.5 131.328 112.938 132.391C109.375 133.422 105.125 133.938 100.188 133.938C95.7188 133.938 91.6562 133.219 88 131.781C84.3438 130.312 81.2031 128.172 78.5781 125.359C75.9531 122.516 73.9219 119.047 72.4844 114.953C71.0781 110.859 70.375 106.172 70.375 100.891V96.8594C70.375 91.5781 71.0781 86.8906 72.4844 82.7969C73.8906 78.7031 75.875 75.25 78.4375 72.4375C81 69.5938 84.0469 67.4375 87.5781 65.9688C91.1094 64.5 95.0156 63.7656 99.2969 63.7656C105.391 63.7656 110.375 64.75 114.25 66.7188C118.125 68.6562 121.062 71.3438 123.062 74.7812C125.094 78.2188 126.344 82.1719 126.812 86.6406H112.094C111.781 84.3594 111.156 82.3906 110.219 80.7344C109.312 79.0781 108.016 77.8125 106.328 76.9375C104.641 76.0312 102.453 75.5781 99.7656 75.5781C97.6094 75.5781 95.6562 76.0312 93.9062 76.9375C92.1875 77.8125 90.7344 79.1406 89.5469 80.9219C88.3594 82.7031 87.4531 84.9219 86.8281 87.5781C86.2031 90.2031 85.8906 93.2656 85.8906 96.7656V100.891C85.8906 104.391 86.2031 107.469 86.8281 110.125C87.4844 112.781 88.4375 115 89.6875 116.781C90.9375 118.531 92.5156 119.859 94.4219 120.766C96.3594 121.672 98.6094 122.125 101.172 122.125C103.172 122.125 104.859 121.969 106.234 121.656C107.609 121.312 108.734 120.891 109.609 120.391C110.484 119.859 111.141 119.375 111.578 118.938V107.594H99.4375V96.9531H126.859Z" fill="#F5F5F5"/>
<path d="M165.672 77.7344L148.047 133H131.734L157 64.75H167.312L165.672 77.7344ZM180.297 133L162.625 77.7344L160.797 64.75H171.25L196.609 133H180.297ZM179.547 107.594V119.406H143.969V107.594H179.547Z" fill="#F5F5F5"/>
</svg>
